<?xml version="1.0" encoding="iso-8859-1"?>
<!-- Uploaded to: SVG Repo, www.svgrepo.com, Generator: SVG Repo Mixer Tools -->
<!DOCTYPE svg PUBLIC "-//W3C//DTD SVG 1.1//EN" "http://www.w3.org/Graphics/SVG/1.1/DTD/svg11.dtd">
<svg fill="#1F4529" version="1.1" id="Capa_1" xmlns="http://www.w3.org/2000/svg" xmlns:xlink="http://www.w3.org/1999/xlink" 
	 width="500px" height="500px" viewBox="0 0 468.562 468.562"
	 xml:space="preserve">
<g>
	<path d="M71.719,439.875c-5.279,0-9.562,7.306-9.562,14.344s4.284,14.344,9.562,14.344h9.562h306h9.562
		c5.278,0,9.562-7.306,9.562-14.344s-4.284-14.344-9.562-14.344h-9.562V76.5h9.562c5.278,0,9.562-7.411,9.562-14.344
		c0-6.933-4.284-14.344-9.562-14.344h-9.562h-306h-9.562c-5.279,0-9.562,7.411-9.562,14.344c0,6.933,4.284,14.344,9.562,14.344
		h9.562v363.375H71.719z M229.5,299.488c10.348,0,19.861-3.356,27.693-8.932l28.295,49.123
		c-16.189,10.309-35.362,16.371-55.988,16.371c-22.128,0-42.62-6.923-59.517-18.666l28.668-49.429
		C207.009,295.051,217.682,299.488,229.5,299.488z M207.315,255.27c0-11.801,9.562-21.363,21.363-21.363
		c11.8,0,21.362,9.562,21.362,21.363c0,11.799-9.562,21.362-21.362,21.362C216.877,276.632,207.315,267.068,207.315,255.27z
		 M258.054,222.51l28.42-52.297c27.808,8.163,52.058,42.913,47.21,87.975h-56.85C275.247,239.062,268.295,230.169,258.054,222.51z
		 M182.165,258.188h-56.849c-7.285-44.062,22.715-76.562,48.146-85.47l28.344,46.024
		C191.078,226.383,183.801,239.062,182.165,258.188z"/>
	<rect x="109.969" width="47.812" height="28.688"/>
</g>
</svg>
